<svg width="512" height="512" viewBox="0 0 512 512" fill="none" xmlns="http://www.w3.org/2000/svg">
<path d="M318 452C318 455.314 320.686 458 324 458C327.314 458 330 455.314 330 452C330 448.686 327.314 446 324 446C320.686 446 318 448.686 318 452Z" fill="white"/>
<path d="M308 424C308 427.314 310.686 430 314 430C317.314 430 320 427.314 320 424C320 420.686 317.314 418 314 418C310.686 418 308 420.686 308 424Z" fill="white"/>
<path d="M338 396C338 399.866 341.134 403 345 403C348.866 403 352 399.866 352 396C352 392.134 348.866 389 345 389C341.134 389 338 392.134 338 396Z" fill="white"/>
<path d="M385.5 340C385.5 352.15 395.35 362 407.5 362C419.65 362 429.5 352.15 429.5 340C429.5 327.85 419.65 318 407.5 318C395.35 318 385.5 327.85 385.5 340Z" fill="white"/>
<path d="M357 383C357 392.389 364.611 400 374 400C383.389 400 391 392.389 391 383C391 373.611 383.389 366 374 366C364.611 366 357 373.611 357 383Z" fill="white"/>
<path d="M332 428C332 433.523 336.477 438 342 438C347.523 438 352 433.523 352 428C352 422.477 347.523 418 342 418C336.477 418 332 422.477 332 428Z" fill="white"/>
<path d="M312 407C312 411.971 316.029 416 321 416C325.971 416 330 411.971 330 407C330 402.029 325.971 398 321 398C316.029 398 312 402.029 312 407Z" fill="white"/>
<path d="M290 415C290 418.866 293.134 422 297 422C300.866 422 304 418.866 304 415C304 411.134 300.866 408 297 408C293.134 408 290 411.134 290 415Z" fill="white"/>
<path d="M262 418C262 423.523 266.477 428 272 428C277.523 428 282 423.523 282 418C282 412.477 277.523 408 272 408C266.477 408 262 412.477 262 418Z" fill="white"/>
<path d="M194 421.5C194 430.613 201.387 438 210.5 438C219.613 438 227 430.613 227 421.5C227 412.387 219.613 405 210.5 405C201.387 405 194 412.387 194 421.5Z" fill="white"/>
<path d="M158.5 402.5C158.5 409.956 164.544 416 172 416C179.456 416 185.5 409.956 185.5 402.5C185.5 395.044 179.456 389 172 389C164.544 389 158.5 395.044 158.5 402.5Z" fill="white"/>
<path d="M91.5 361C91.5 372.046 100.454 381 111.5 381C122.546 381 131.5 372.046 131.5 361C131.5 349.954 122.546 341 111.5 341C100.454 341 91.5 349.954 91.5 361Z" fill="white"/>
<path d="M78 317.5C78 326.06 84.9396 333 93.5 333C102.06 333 109 326.06 109 317.5C109 308.94 102.06 302 93.5 302C84.9396 302 78 308.94 78 317.5Z" fill="white"/>
<path d="M61.5 345C61.5 351.075 66.4249 356 72.5 356C78.5751 356 83.5 351.075 83.5 345C83.5 338.925 78.5751 334 72.5 334C66.4249 334 61.5 338.925 61.5 345Z" fill="white"/>
<path d="M59 322.5C59 326.642 62.3579 330 66.5 330C70.6421 330 74 326.642 74 322.5C74 318.358 70.6421 315 66.5 315C62.3579 315 59 318.358 59 322.5Z" fill="white"/>
<path d="M29.5 348C29.5 352.418 33.0817 356 37.5 356C41.9183 356 45.5 352.418 45.5 348C45.5 343.582 41.9183 340 37.5 340C33.0817 340 29.5 343.582 29.5 348Z" fill="white"/>
<path d="M27 360.5C27 362.985 29.0147 365 31.5 365C33.9853 365 36 362.985 36 360.5C36 358.015 33.9853 356 31.5 356C29.0147 356 27 358.015 27 360.5Z" fill="white"/>
<path d="M8.5 359C8.5 360.657 9.84315 362 11.5 362C13.1569 362 14.5 360.657 14.5 359C14.5 357.343 13.1569 356 11.5 356C9.84315 356 8.5 357.343 8.5 359Z" fill="white"/>
<path d="M65.5 285.5C65.5 286.881 66.6193 288 68 288C69.3807 288 70.5 286.881 70.5 285.5C70.5 284.119 69.3807 283 68 283C66.6193 283 65.5 284.119 65.5 285.5Z" fill="white"/>
<path d="M37 239C37 241.209 38.7909 243 41 243C43.2091 243 45 241.209 45 239C45 236.791 43.2091 235 41 235C38.7909 235 37 236.791 37 239Z" fill="white"/>
<path d="M21 231C21 234.314 23.6863 237 27 237C30.3137 237 33 234.314 33 231C33 227.686 30.3137 225 27 225C23.6863 225 21 227.686 21 231Z" fill="white"/>
<path d="M78.5 278C78.5 283.523 82.9771 288 88.5 288C94.0229 288 98.5 283.523 98.5 278C98.5 272.477 94.0229 268 88.5 268C82.9771 268 78.5 272.477 78.5 278Z" fill="white"/>
<path d="M56.5 263C56.5 267.971 60.5294 272 65.5 272C70.4706 272 74.5 267.971 74.5 263C74.5 258.029 70.4706 254 65.5 254C60.5294 254 56.5 258.029 56.5 263Z" fill="white"/>
<path d="M78.5 247C78.5 251.971 82.5294 256 87.5 256C92.4706 256 96.5 251.971 96.5 247C96.5 242.029 92.4706 238 87.5 238C82.5294 238 78.5 242.029 78.5 247Z" fill="white"/>
<path d="M55.5 236C55.5 240.418 59.0817 244 63.5 244C67.9183 244 71.5 240.418 71.5 236C71.5 231.582 67.9183 228 63.5 228C59.0817 228 55.5 231.582 55.5 236Z" fill="white"/>
<path d="M66 207C66 218.046 74.9543 227 86 227C97.0457 227 106 218.046 106 207C106 195.954 97.0457 187 86 187C74.9543 187 66 195.954 66 207Z" fill="white"/>
<path d="M30 214C30 221.732 36.268 228 44 228C51.732 228 58 221.732 58 214C58 206.268 51.732 200 44 200C36.268 200 30 206.268 30 214Z" fill="white"/>
<path d="M40 184C40 190.627 45.3726 196 52 196C58.6274 196 64 190.627 64 184C64 177.373 58.6274 172 52 172C45.3726 172 40 177.373 40 184Z" fill="white"/>
<path d="M98 164C98 170.627 103.373 176 110 176C116.627 176 122 170.627 122 164C122 157.373 116.627 152 110 152C103.373 152 98 157.373 98 164Z" fill="white"/>
<path d="M124 129C124 137.284 130.716 144 139 144C147.284 144 154 137.284 154 129C154 120.716 147.284 114 139 114C130.716 114 124 120.716 124 129Z" fill="white"/>
<path d="M158 111C158 117.075 162.925 122 169 122C175.075 122 180 117.075 180 111C180 104.925 175.075 100 169 100C162.925 100 158 104.925 158 111Z" fill="white"/>
<path d="M172 83C172 86.866 175.134 90 179 90C182.866 90 186 86.866 186 83C186 79.134 182.866 76 179 76C175.134 76 172 79.134 172 83Z" fill="white"/>
<path d="M210 67C210 70.866 213.134 74 217 74C220.866 74 224 70.866 224 67C224 63.134 220.866 60 217 60C213.134 60 210 63.134 210 67Z" fill="white"/>
<path d="M222 89C222 95.0751 226.925 100 233 100C239.075 100 244 95.0751 244 89C244 82.9249 239.075 78 233 78C226.925 78 222 82.9249 222 89Z" fill="white"/>
<path d="M232 60C232 67.732 238.268 74 246 74C253.732 74 260 67.732 260 60C260 52.268 253.732 46 246 46C238.268 46 232 52.268 232 60Z" fill="white"/>
<path d="M251 85C251 89.9706 255.029 94 260 94C264.971 94 269 89.9706 269 85C269 80.0294 264.971 76 260 76C255.029 76 251 80.0294 251 85Z" fill="white"/>
<path d="M280 82C280 93.0457 288.954 102 300 102C311.046 102 320 93.0457 320 82C320 70.9543 311.046 62 300 62C288.954 62 280 70.9543 280 82Z" fill="white"/>
<path d="M327.5 72.5C327.5 79.4036 333.096 85 340 85C346.904 85 352.5 79.4036 352.5 72.5C352.5 65.5964 346.904 60 340 60C333.096 60 327.5 65.5964 327.5 72.5Z" fill="white"/>
<path d="M331.5 105.5C331.5 112.956 337.544 119 345 119C352.456 119 358.5 112.956 358.5 105.5C358.5 98.0442 352.456 92 345 92C337.544 92 331.5 98.0442 331.5 105.5Z" fill="white"/>
<path d="M392.5 162.5C392.5 169.956 398.544 176 406 176C413.456 176 419.5 169.956 419.5 162.5C419.5 155.044 413.456 149 406 149C398.544 149 392.5 155.044 392.5 162.5Z" fill="white"/>
<path d="M376 142C376 146.971 380.029 151 385 151C389.971 151 394 146.971 394 142C394 137.029 389.971 133 385 133C380.029 133 376 137.029 376 142Z" fill="white"/>
<path d="M405 129C405 133.971 409.029 138 414 138C418.971 138 423 133.971 423 129C423 124.029 418.971 120 414 120C409.029 120 405 124.029 405 129Z" fill="white"/>
<path d="M362 124C362 128.418 365.582 132 370 132C374.418 132 378 128.418 378 124C378 119.582 374.418 116 370 116C365.582 116 362 119.582 362 124Z" fill="white"/>
<path d="M433 126C433 129.314 435.686 132 439 132C442.314 132 445 129.314 445 126C445 122.686 442.314 120 439 120C435.686 120 433 122.686 433 126Z" fill="white"/>
<path d="M356 81C356 84.3137 358.686 87 362 87C365.314 87 368 84.3137 368 81C368 77.6863 365.314 75 362 75C358.686 75 356 77.6863 356 81Z" fill="white"/>
<path d="M338 51C338 54.866 341.134 58 345 58C348.866 58 352 54.866 352 51C352 47.134 348.866 44 345 44C341.134 44 338 47.134 338 51Z" fill="white"/>
<path d="M414 43C414 47.9706 418.029 52 423 52C427.971 52 432 47.9706 432 43C432 38.0294 427.971 34 423 34C418.029 34 414 38.0294 414 43Z" fill="white"/>
<path d="M353.5 6.5C353.5 10.0899 356.41 13 360 13C363.59 13 366.5 10.0899 366.5 6.5C366.5 2.91015 363.59 0 360 0C356.41 0 353.5 2.91015 353.5 6.5Z" fill="white"/>
<path d="M389 114C389 116.209 390.791 118 393 118C395.209 118 397 116.209 397 114C397 111.791 395.209 110 393 110C390.791 110 389 111.791 389 114Z" fill="white"/>
<path d="M424 150C424 155.523 428.477 160 434 160C439.523 160 444 155.523 444 150C444 144.477 439.523 140 434 140C428.477 140 424 144.477 424 150Z" fill="white"/>
<path d="M452 157C452 161.971 456.029 166 461 166C465.971 166 470 161.971 470 157C470 152.029 465.971 148 461 148C456.029 148 452 152.029 452 157Z" fill="white"/>
<path d="M469 201C469 204.866 472.134 208 476 208C479.866 208 483 204.866 483 201C483 197.134 479.866 194 476 194C472.134 194 469 197.134 469 201Z" fill="white"/>
<path d="M411 231C411 235.971 415.029 240 420 240C424.971 240 429 235.971 429 231C429 226.029 424.971 222 420 222C415.029 222 411 226.029 411 231Z" fill="white"/>
<path d="M443 247C443 251.971 447.029 256 452 256C456.971 256 461 251.971 461 247C461 242.029 456.971 238 452 238C447.029 238 443 242.029 443 247Z" fill="white"/>
<path d="M411.5 261.5C411.5 267.299 416.201 272 422 272C427.799 272 432.5 267.299 432.5 261.5C432.5 255.701 427.799 251 422 251C416.201 251 411.5 255.701 411.5 261.5Z" fill="white"/>
<path d="M439.5 268.5C439.5 272.642 442.858 276 447 276C451.142 276 454.5 272.642 454.5 268.5C454.5 264.358 451.142 261 447 261C442.858 261 439.5 264.358 439.5 268.5Z" fill="white"/>
<path d="M402 295C402 303.284 408.716 310 417 310C425.284 310 432 303.284 432 295C432 286.716 425.284 280 417 280C408.716 280 402 286.716 402 295Z" fill="white"/>
<path d="M462 327C462 331.971 466.029 336 471 336C475.971 336 480 331.971 480 327C480 322.029 475.971 318 471 318C466.029 318 462 322.029 462 327Z" fill="white"/>
<path d="M440 286C440 289.314 442.686 292 446 292C449.314 292 452 289.314 452 286C452 282.686 449.314 280 446 280C442.686 280 440 282.686 440 286Z" fill="white"/>
<path d="M472 294C472 296.209 473.791 298 476 298C478.209 298 480 296.209 480 294C480 291.791 478.209 290 476 290C473.791 290 472 291.791 472 294Z" fill="white"/>
<path d="M462 265C462 267.209 463.791 269 466 269C468.209 269 470 267.209 470 265C470 262.791 468.209 261 466 261C463.791 261 462 262.791 462 265Z" fill="white"/>
<path d="M219 27C219 31.9706 223.029 36 228 36C232.971 36 237 31.9706 237 27C237 22.0294 232.971 18 228 18C223.029 18 219 22.0294 219 27Z" fill="white"/>
<path d="M216 48C216 50.2091 217.791 52 220 52C222.209 52 224 50.2091 224 48C224 45.7909 222.209 44 220 44C217.791 44 216 45.7909 216 48Z" fill="white"/>
<path d="M267 64C267 66.2091 268.791 68 271 68C273.209 68 275 66.2091 275 64C275 61.7909 273.209 60 271 60C268.791 60 267 61.7909 267 64Z" fill="white"/>
<path d="M283 45C283 49.9706 287.029 54 292 54C296.971 54 301 49.9706 301 45C301 40.0294 296.971 36 292 36C287.029 36 283 40.0294 283 45Z" fill="white"/>
<path d="M68 161C68 165.971 72.0294 170 77 170C81.9706 170 86 165.971 86 161C86 156.029 81.9706 152 77 152C72.0294 152 68 156.029 68 161Z" fill="white"/>
<path d="M91 110C91 113.314 93.6863 116 97 116C100.314 116 103 113.314 103 110C103 106.686 100.314 104 97 104C93.6863 104 91 106.686 91 110Z" fill="white"/>
<path d="M123 102C123 104.209 124.791 106 127 106C129.209 106 131 104.209 131 102C131 99.7909 129.209 98 127 98C124.791 98 123 99.7909 123 102Z" fill="white"/>
<path d="M139 100C139 103.314 141.686 106 145 106C148.314 106 151 103.314 151 100C151 96.6863 148.314 94 145 94C141.686 94 139 96.6863 139 100Z" fill="white"/>
<path d="M110 139C110 140.657 111.343 142 113 142C114.657 142 116 140.657 116 139C116 137.343 114.657 136 113 136C111.343 136 110 137.343 110 139Z" fill="white"/>
<path d="M88 144C88 146.209 89.7909 148 92 148C94.2091 148 96 146.209 96 144C96 141.791 94.2091 140 92 140C89.7909 140 88 141.791 88 144Z" fill="white"/>
<path d="M104 52C104 55.3137 106.686 58 110 58C113.314 58 116 55.3137 116 52C116 48.6863 113.314 46 110 46C106.686 46 104 48.6863 104 52Z" fill="white"/>
<path d="M14 71C14 72.6569 15.3431 74 17 74C18.6569 74 20 72.6569 20 71C20 69.3431 18.6569 68 17 68C15.3431 68 14 69.3431 14 71Z" fill="white"/>
<path d="M46 157C46 161.971 50.0294 166 55 166C59.9706 166 64 161.971 64 157C64 152.029 59.9706 148 55 148C50.0294 148 46 152.029 46 157Z" fill="white"/>
<path d="M2 183C2 187.971 6.02944 192 11 192C15.9706 192 20 187.971 20 183C20 178.029 15.9706 174 11 174C6.02944 174 2 178.029 2 183Z" fill="white"/>
<path d="M168 429C168 433.971 172.029 438 177 438C181.971 438 186 433.971 186 429C186 424.029 181.971 420 177 420C172.029 420 168 424.029 168 429Z" fill="white"/>
<path d="M142 423C142 427.971 146.029 432 151 432C155.971 432 160 427.971 160 423C160 418.029 155.971 414 151 414C146.029 414 142 418.029 142 423Z" fill="white"/>
<path d="M168 453C168 456.866 171.134 460 175 460C178.866 460 182 456.866 182 453C182 449.134 178.866 446 175 446C171.134 446 168 449.134 168 453Z" fill="white"/>
<path d="M148 446C148 449.314 150.686 452 154 452C157.314 452 160 449.314 160 446C160 442.686 157.314 440 154 440C150.686 440 148 442.686 148 446Z" fill="white"/>
<path d="M133 444C133 446.209 134.791 448 137 448C139.209 448 141 446.209 141 444C141 441.791 139.209 440 137 440C134.791 440 133 441.791 133 444Z" fill="white"/>
<path d="M190 448C190 450.209 191.791 452 194 452C196.209 452 198 450.209 198 448C198 445.791 196.209 444 194 444C191.791 444 190 445.791 190 448Z" fill="white"/>
<path d="M107 428C107 432.418 110.582 436 115 436C119.418 436 123 432.418 123 428C123 423.582 119.418 420 115 420C110.582 420 107 423.582 107 428Z" fill="white"/>
<path d="M242 416C242 418.209 243.791 420 246 420C248.209 420 250 418.209 250 416C250 413.791 248.209 412 246 412C243.791 412 242 413.791 242 416Z" fill="white"/>
<path d="M232 442C232 444.209 233.791 446 236 446C238.209 446 240 444.209 240 442C240 439.791 238.209 438 236 438C233.791 438 232 439.791 232 442Z" fill="white"/>
<path d="M357 457C357 460.866 360.134 464 364 464C367.866 464 371 460.866 371 457C371 453.134 367.866 450 364 450C360.134 450 357 453.134 357 457Z" fill="white"/>
<path d="M405 378.5C405 383.194 408.806 387 413.5 387C418.194 387 422 383.194 422 378.5C422 373.806 418.194 370 413.5 370C408.806 370 405 373.806 405 378.5Z" fill="white"/>
<path d="M395.5 400C395.5 402.209 397.291 404 399.5 404C401.709 404 403.5 402.209 403.5 400C403.5 397.791 401.709 396 399.5 396C397.291 396 395.5 397.791 395.5 400Z" fill="white"/>
<path d="M482 402C482 404.209 483.791 406 486 406C488.209 406 490 404.209 490 402C490 399.791 488.209 398 486 398C483.791 398 482 399.791 482 402Z" fill="white"/>
<path d="M430 363C430 367.971 434.029 372 439 372C443.971 372 448 367.971 448 363C448 358.029 443.971 354 439 354C434.029 354 430 358.029 430 363Z" fill="white"/>
<path d="M434 390C434 395.523 438.477 400 444 400C449.523 400 454 395.523 454 390C454 384.477 449.523 380 444 380C438.477 380 434 384.477 434 390Z" fill="white"/>
<path d="M433.5 341.5C433.5 345.642 436.858 349 441 349C445.142 349 448.5 345.642 448.5 341.5C448.5 337.358 445.142 334 441 334C436.858 334 433.5 337.358 433.5 341.5Z" fill="white"/>
<path d="M462 423C462 427.971 466.029 432 471 432C475.971 432 480 427.971 480 423C480 418.029 475.971 414 471 414C466.029 414 462 418.029 462 423Z" fill="white"/>
<path d="M254 480C254 482.209 255.791 484 258 484C260.209 484 262 482.209 262 480C262 477.791 260.209 476 258 476C255.791 476 254 477.791 254 480Z" fill="white"/>
<path d="M213 508C213 510.209 214.791 512 217 512C219.209 512 221 510.209 221 508C221 505.791 219.209 504 217 504C214.791 504 213 505.791 213 508Z" fill="white"/>
<path d="M136 482C136 484.209 137.791 486 140 486C142.209 486 144 484.209 144 482C144 479.791 142.209 478 140 478C137.791 478 136 479.791 136 482Z" fill="white"/>
<path d="M498 230C498 232.209 499.791 234 502 234C504.209 234 506 232.209 506 230C506 227.791 504.209 226 502 226C499.791 226 498 227.791 498 230Z" fill="white"/>
<path d="M508 74C508 75.1046 508.895 76 510 76C511.105 76 512 75.1046 512 74C512 72.8954 511.105 72 510 72C508.895 72 508 72.8954 508 74Z" fill="white"/>
<path fill-rule="evenodd" clip-rule="evenodd" d="M256.5 387C184.427 387 126 328.573 126 256.5C126 184.427 184.427 126 256.5 126C328.573 126 387 184.427 387 256.5C387 328.573 328.573 387 256.5 387ZM342.032 313.001C342.032 313.001 314.766 288.708 313.44 286.836C318.37 277.61 321 267.268 321 256.5C321 245.961 318.481 235.829 313.752 226.754C315.935 224.293 325.314 215.302 341.888 199.782C352.983 216.458 359 236.055 359 256.5C359 276.855 353.036 296.371 342.032 313.001ZM314.215 171.783C314.215 171.783 291.24 197.208 287.996 200.195C278.485 194.858 267.724 192 256.5 192C220.878 192 192 220.878 192 256.5C192 292.122 220.878 321 256.5 321C267.407 321 277.877 318.301 287.189 313.25C289.814 315.682 298.7 325.087 313.847 341.466C297.041 352.827 277.206 359 256.5 359C199.891 359 154 313.109 154 256.5C154 199.891 199.891 154 256.5 154C277.36 154 297.334 160.265 314.215 171.783Z" fill="white"/>
</svg>
