<svg width="512" height="512" viewBox="0 0 512 512" fill="none" xmlns="http://www.w3.org/2000/svg">
<path fill-rule="evenodd" clip-rule="evenodd" d="M256.5 387C184.427 387 126 328.573 126 256.5C126 184.427 184.427 126 256.5 126C328.573 126 387 184.427 387 256.5C387 328.573 328.573 387 256.5 387Z" fill="#3385FF"/>
<path fill-rule="evenodd" clip-rule="evenodd" d="M324 458C320.686 458 318 455.314 318 452C318 448.686 320.686 446 324 446C327.314 446 330 448.686 330 452C330 455.314 327.314 458 324 458ZM314 430C310.686 430 308 427.314 308 424C308 420.686 310.686 418 314 418C317.314 418 320 420.686 320 424C320 427.314 317.314 430 314 430ZM345 403C341.134 403 338 399.866 338 396C338 392.134 341.134 389 345 389C348.866 389 352 392.134 352 396C352 399.866 348.866 403 345 403ZM407.5 362C395.35 362 385.5 352.15 385.5 340C385.5 327.85 395.35 318 407.5 318C419.65 318 429.5 327.85 429.5 340C429.5 352.15 419.65 362 407.5 362ZM374 400C364.611 400 357 392.389 357 383C357 373.611 364.611 366 374 366C383.389 366 391 373.611 391 383C391 392.389 383.389 400 374 400ZM342 438C336.477 438 332 433.523 332 428C332 422.477 336.477 418 342 418C347.523 418 352 422.477 352 428C352 433.523 347.523 438 342 438ZM321 416C316.029 416 312 411.971 312 407C312 402.029 316.029 398 321 398C325.971 398 330 402.029 330 407C330 411.971 325.971 416 321 416ZM297 422C293.134 422 290 418.866 290 415C290 411.134 293.134 408 297 408C300.866 408 304 411.134 304 415C304 418.866 300.866 422 297 422ZM272 428C266.477 428 262 423.523 262 418C262 412.477 266.477 408 272 408C277.523 408 282 412.477 282 418C282 423.523 277.523 428 272 428ZM210.5 438C201.387 438 194 430.613 194 421.5C194 412.387 201.387 405 210.5 405C219.613 405 227 412.387 227 421.5C227 430.613 219.613 438 210.5 438ZM172 416C164.544 416 158.5 409.956 158.5 402.5C158.5 395.044 164.544 389 172 389C179.456 389 185.5 395.044 185.5 402.5C185.5 409.956 179.456 416 172 416ZM111.5 381C100.454 381 91.5 372.046 91.5 361C91.5 349.954 100.454 341 111.5 341C122.546 341 131.5 349.954 131.5 361C131.5 372.046 122.546 381 111.5 381ZM93.5 333C84.9396 333 78 326.06 78 317.5C78 308.94 84.9396 302 93.5 302C102.06 302 109 308.94 109 317.5C109 326.06 102.06 333 93.5 333ZM72.5 356C66.4249 356 61.5 351.075 61.5 345C61.5 338.925 66.4249 334 72.5 334C78.5751 334 83.5 338.925 83.5 345C83.5 351.075 78.5751 356 72.5 356ZM66.5 330C62.3579 330 59 326.642 59 322.5C59 318.358 62.3579 315 66.5 315C70.6421 315 74 318.358 74 322.5C74 326.642 70.6421 330 66.5 330ZM37.5 356C33.0817 356 29.5 352.418 29.5 348C29.5 343.582 33.0817 340 37.5 340C41.9183 340 45.5 343.582 45.5 348C45.5 352.418 41.9183 356 37.5 356ZM31.5 365C29.0147 365 27 362.985 27 360.5C27 358.015 29.0147 356 31.5 356C33.9853 356 36 358.015 36 360.5C36 362.985 33.9853 365 31.5 365ZM11.5 362C9.84315 362 8.5 360.657 8.5 359C8.5 357.343 9.84315 356 11.5 356C13.1569 356 14.5 357.343 14.5 359C14.5 360.657 13.1569 362 11.5 362ZM68 288C66.6193 288 65.5 286.881 65.5 285.5C65.5 284.119 66.6193 283 68 283C69.3807 283 70.5 284.119 70.5 285.5C70.5 286.881 69.3807 288 68 288ZM41 243C38.7909 243 37 241.209 37 239C37 236.791 38.7909 235 41 235C43.2091 235 45 236.791 45 239C45 241.209 43.2091 243 41 243ZM27 237C23.6863 237 21 234.314 21 231C21 227.686 23.6863 225 27 225C30.3137 225 33 227.686 33 231C33 234.314 30.3137 237 27 237ZM88.5 288C82.9772 288 78.5 283.523 78.5 278C78.5 272.477 82.9772 268 88.5 268C94.0228 268 98.5 272.477 98.5 278C98.5 283.523 94.0228 288 88.5 288ZM65.5 272C60.5294 272 56.5 267.971 56.5 263C56.5 258.029 60.5294 254 65.5 254C70.4706 254 74.5 258.029 74.5 263C74.5 267.971 70.4706 272 65.5 272ZM87.5 256C82.5294 256 78.5 251.971 78.5 247C78.5 242.029 82.5294 238 87.5 238C92.4706 238 96.5 242.029 96.5 247C96.5 251.971 92.4706 256 87.5 256ZM63.5 244C59.0817 244 55.5 240.418 55.5 236C55.5 231.582 59.0817 228 63.5 228C67.9183 228 71.5 231.582 71.5 236C71.5 240.418 67.9183 244 63.5 244ZM86 227C74.9543 227 66 218.046 66 207C66 195.954 74.9543 187 86 187C97.0457 187 106 195.954 106 207C106 218.046 97.0457 227 86 227ZM44 228C36.268 228 30 221.732 30 214C30 206.268 36.268 200 44 200C51.732 200 58 206.268 58 214C58 221.732 51.732 228 44 228ZM52 196C45.3726 196 40 190.627 40 184C40 177.373 45.3726 172 52 172C58.6274 172 64 177.373 64 184C64 190.627 58.6274 196 52 196ZM110 176C103.373 176 98 170.627 98 164C98 157.373 103.373 152 110 152C116.627 152 122 157.373 122 164C122 170.627 116.627 176 110 176ZM139 144C130.716 144 124 137.284 124 129C124 120.716 130.716 114 139 114C147.284 114 154 120.716 154 129C154 137.284 147.284 144 139 144ZM169 122C162.925 122 158 117.075 158 111C158 104.925 162.925 100 169 100C175.075 100 180 104.925 180 111C180 117.075 175.075 122 169 122ZM179 90C175.134 90 172 86.866 172 83C172 79.134 175.134 76 179 76C182.866 76 186 79.134 186 83C186 86.866 182.866 90 179 90ZM217 74C213.134 74 210 70.866 210 67C210 63.134 213.134 60 217 60C220.866 60 224 63.134 224 67C224 70.866 220.866 74 217 74ZM233 100C226.925 100 222 95.0751 222 89C222 82.9249 226.925 78 233 78C239.075 78 244 82.9249 244 89C244 95.0751 239.075 100 233 100ZM246 74C238.268 74 232 67.732 232 60C232 52.268 238.268 46 246 46C253.732 46 260 52.268 260 60C260 67.732 253.732 74 246 74ZM260 94C255.029 94 251 89.9706 251 85C251 80.0294 255.029 76 260 76C264.971 76 269 80.0294 269 85C269 89.9706 264.971 94 260 94ZM300 102C288.954 102 280 93.0457 280 82C280 70.9543 288.954 62 300 62C311.046 62 320 70.9543 320 82C320 93.0457 311.046 102 300 102ZM340 85C333.096 85 327.5 79.4036 327.5 72.5C327.5 65.5964 333.096 60 340 60C346.904 60 352.5 65.5964 352.5 72.5C352.5 79.4036 346.904 85 340 85ZM345 119C337.544 119 331.5 112.956 331.5 105.5C331.5 98.0442 337.544 92 345 92C352.456 92 358.5 98.0442 358.5 105.5C358.5 112.956 352.456 119 345 119ZM406 176C398.544 176 392.5 169.956 392.5 162.5C392.5 155.044 398.544 149 406 149C413.456 149 419.5 155.044 419.5 162.5C419.5 169.956 413.456 176 406 176ZM385 151C380.029 151 376 146.971 376 142C376 137.029 380.029 133 385 133C389.971 133 394 137.029 394 142C394 146.971 389.971 151 385 151ZM414 138C409.029 138 405 133.971 405 129C405 124.029 409.029 120 414 120C418.971 120 423 124.029 423 129C423 133.971 418.971 138 414 138ZM370 132C365.582 132 362 128.418 362 124C362 119.582 365.582 116 370 116C374.418 116 378 119.582 378 124C378 128.418 374.418 132 370 132ZM439 132C435.686 132 433 129.314 433 126C433 122.686 435.686 120 439 120C442.314 120 445 122.686 445 126C445 129.314 442.314 132 439 132ZM362 87C358.686 87 356 84.3137 356 81C356 77.6863 358.686 75 362 75C365.314 75 368 77.6863 368 81C368 84.3137 365.314 87 362 87ZM345 58C341.134 58 338 54.866 338 51C338 47.134 341.134 44 345 44C348.866 44 352 47.134 352 51C352 54.866 348.866 58 345 58ZM423 52C418.029 52 414 47.9706 414 43C414 38.0294 418.029 34 423 34C427.971 34 432 38.0294 432 43C432 47.9706 427.971 52 423 52ZM360 13C356.41 13 353.5 10.0899 353.5 6.5C353.5 2.91015 356.41 0 360 0C363.59 0 366.5 2.91015 366.5 6.5C366.5 10.0899 363.59 13 360 13ZM393 118C390.791 118 389 116.209 389 114C389 111.791 390.791 110 393 110C395.209 110 397 111.791 397 114C397 116.209 395.209 118 393 118ZM434 160C428.477 160 424 155.523 424 150C424 144.477 428.477 140 434 140C439.523 140 444 144.477 444 150C444 155.523 439.523 160 434 160ZM461 166C456.029 166 452 161.971 452 157C452 152.029 456.029 148 461 148C465.971 148 470 152.029 470 157C470 161.971 465.971 166 461 166ZM476 208C472.134 208 469 204.866 469 201C469 197.134 472.134 194 476 194C479.866 194 483 197.134 483 201C483 204.866 479.866 208 476 208ZM420 240C415.029 240 411 235.971 411 231C411 226.029 415.029 222 420 222C424.971 222 429 226.029 429 231C429 235.971 424.971 240 420 240ZM452 256C447.029 256 443 251.971 443 247C443 242.029 447.029 238 452 238C456.971 238 461 242.029 461 247C461 251.971 456.971 256 452 256ZM422 272C416.201 272 411.5 267.299 411.5 261.5C411.5 255.701 416.201 251 422 251C427.799 251 432.5 255.701 432.5 261.5C432.5 267.299 427.799 272 422 272ZM447 276C442.858 276 439.5 272.642 439.5 268.5C439.5 264.358 442.858 261 447 261C451.142 261 454.5 264.358 454.5 268.5C454.5 272.642 451.142 276 447 276ZM417 310C408.716 310 402 303.284 402 295C402 286.716 408.716 280 417 280C425.284 280 432 286.716 432 295C432 303.284 425.284 310 417 310ZM471 336C466.029 336 462 331.971 462 327C462 322.029 466.029 318 471 318C475.971 318 480 322.029 480 327C480 331.971 475.971 336 471 336ZM446 292C442.686 292 440 289.314 440 286C440 282.686 442.686 280 446 280C449.314 280 452 282.686 452 286C452 289.314 449.314 292 446 292ZM476 298C473.791 298 472 296.209 472 294C472 291.791 473.791 290 476 290C478.209 290 480 291.791 480 294C480 296.209 478.209 298 476 298ZM466 269C463.791 269 462 267.209 462 265C462 262.791 463.791 261 466 261C468.209 261 470 262.791 470 265C470 267.209 468.209 269 466 269ZM228 36C223.029 36 219 31.9706 219 27C219 22.0294 223.029 18 228 18C232.971 18 237 22.0294 237 27C237 31.9706 232.971 36 228 36ZM220 52C217.791 52 216 50.2091 216 48C216 45.7909 217.791 44 220 44C222.209 44 224 45.7909 224 48C224 50.2091 222.209 52 220 52ZM271 68C268.791 68 267 66.2091 267 64C267 61.7909 268.791 60 271 60C273.209 60 275 61.7909 275 64C275 66.2091 273.209 68 271 68ZM292 54C287.029 54 283 49.9706 283 45C283 40.0294 287.029 36 292 36C296.971 36 301 40.0294 301 45C301 49.9706 296.971 54 292 54ZM77 170C72.0294 170 68 165.971 68 161C68 156.029 72.0294 152 77 152C81.9706 152 86 156.029 86 161C86 165.971 81.9706 170 77 170ZM97 116C93.6863 116 91 113.314 91 110C91 106.686 93.6863 104 97 104C100.314 104 103 106.686 103 110C103 113.314 100.314 116 97 116ZM127 106C124.791 106 123 104.209 123 102C123 99.7909 124.791 98 127 98C129.209 98 131 99.7909 131 102C131 104.209 129.209 106 127 106ZM145 106C141.686 106 139 103.314 139 100C139 96.6863 141.686 94 145 94C148.314 94 151 96.6863 151 100C151 103.314 148.314 106 145 106ZM113 142C111.343 142 110 140.657 110 139C110 137.343 111.343 136 113 136C114.657 136 116 137.343 116 139C116 140.657 114.657 142 113 142ZM92 148C89.7909 148 88 146.209 88 144C88 141.791 89.7909 140 92 140C94.2091 140 96 141.791 96 144C96 146.209 94.2091 148 92 148ZM110 58C106.686 58 104 55.3137 104 52C104 48.6863 106.686 46 110 46C113.314 46 116 48.6863 116 52C116 55.3137 113.314 58 110 58ZM17 74C15.3431 74 14 72.6569 14 71C14 69.3431 15.3431 68 17 68C18.6569 68 20 69.3431 20 71C20 72.6569 18.6569 74 17 74ZM55 166C50.0294 166 46 161.971 46 157C46 152.029 50.0294 148 55 148C59.9706 148 64 152.029 64 157C64 161.971 59.9706 166 55 166ZM11 192C6.02944 192 2 187.971 2 183C2 178.029 6.02944 174 11 174C15.9706 174 20 178.029 20 183C20 187.971 15.9706 192 11 192ZM177 438C172.029 438 168 433.971 168 429C168 424.029 172.029 420 177 420C181.971 420 186 424.029 186 429C186 433.971 181.971 438 177 438ZM151 432C146.029 432 142 427.971 142 423C142 418.029 146.029 414 151 414C155.971 414 160 418.029 160 423C160 427.971 155.971 432 151 432ZM175 460C171.134 460 168 456.866 168 453C168 449.134 171.134 446 175 446C178.866 446 182 449.134 182 453C182 456.866 178.866 460 175 460ZM154 452C150.686 452 148 449.314 148 446C148 442.686 150.686 440 154 440C157.314 440 160 442.686 160 446C160 449.314 157.314 452 154 452ZM137 448C134.791 448 133 446.209 133 444C133 441.791 134.791 440 137 440C139.209 440 141 441.791 141 444C141 446.209 139.209 448 137 448ZM194 452C191.791 452 190 450.209 190 448C190 445.791 191.791 444 194 444C196.209 444 198 445.791 198 448C198 450.209 196.209 452 194 452ZM115 436C110.582 436 107 432.418 107 428C107 423.582 110.582 420 115 420C119.418 420 123 423.582 123 428C123 432.418 119.418 436 115 436ZM246 420C243.791 420 242 418.209 242 416C242 413.791 243.791 412 246 412C248.209 412 250 413.791 250 416C250 418.209 248.209 420 246 420ZM236 446C233.791 446 232 444.209 232 442C232 439.791 233.791 438 236 438C238.209 438 240 439.791 240 442C240 444.209 238.209 446 236 446ZM364 464C360.134 464 357 460.866 357 457C357 453.134 360.134 450 364 450C367.866 450 371 453.134 371 457C371 460.866 367.866 464 364 464ZM413.5 387C408.806 387 405 383.194 405 378.5C405 373.806 408.806 370 413.5 370C418.194 370 422 373.806 422 378.5C422 383.194 418.194 387 413.5 387ZM399.5 404C397.291 404 395.5 402.209 395.5 400C395.5 397.791 397.291 396 399.5 396C401.709 396 403.5 397.791 403.5 400C403.5 402.209 401.709 404 399.5 404ZM486 406C483.791 406 482 404.209 482 402C482 399.791 483.791 398 486 398C488.209 398 490 399.791 490 402C490 404.209 488.209 406 486 406ZM439 372C434.029 372 430 367.971 430 363C430 358.029 434.029 354 439 354C443.971 354 448 358.029 448 363C448 367.971 443.971 372 439 372ZM444 400C438.477 400 434 395.523 434 390C434 384.477 438.477 380 444 380C449.523 380 454 384.477 454 390C454 395.523 449.523 400 444 400ZM441 349C436.858 349 433.5 345.642 433.5 341.5C433.5 337.358 436.858 334 441 334C445.142 334 448.5 337.358 448.5 341.5C448.5 345.642 445.142 349 441 349ZM471 432C466.029 432 462 427.971 462 423C462 418.029 466.029 414 471 414C475.971 414 480 418.029 480 423C480 427.971 475.971 432 471 432ZM258 484C255.791 484 254 482.209 254 480C254 477.791 255.791 476 258 476C260.209 476 262 477.791 262 480C262 482.209 260.209 484 258 484ZM217 512C214.791 512 213 510.209 213 508C213 505.791 214.791 504 217 504C219.209 504 221 505.791 221 508C221 510.209 219.209 512 217 512ZM140 486C137.791 486 136 484.209 136 482C136 479.791 137.791 478 140 478C142.209 478 144 479.791 144 482C144 484.209 142.209 486 140 486ZM502 234C499.791 234 498 232.209 498 230C498 227.791 499.791 226 502 226C504.209 226 506 227.791 506 230C506 232.209 504.209 234 502 234ZM510 76C508.895 76 508 75.1046 508 74C508 72.8954 508.895 72 510 72C511.105 72 512 72.8954 512 74C512 75.1046 511.105 76 510 76Z" fill="#99C9FF"/>
<path fill-rule="evenodd" clip-rule="evenodd" d="M342.032 313.001C342.032 313.001 314.766 288.708 313.44 286.836C318.37 277.61 321 267.268 321 256.5C321 245.961 318.481 235.829 313.752 226.754C315.935 224.293 325.314 215.302 341.888 199.782C352.983 216.458 359 236.055 359 256.5C359 276.855 353.036 296.371 342.032 313.001ZM314.215 171.783C314.215 171.783 291.24 197.208 287.996 200.195C278.485 194.858 267.724 192 256.5 192C220.878 192 192 220.878 192 256.5C192 292.122 220.878 321 256.5 321C267.407 321 277.877 318.301 287.189 313.25C289.814 315.682 298.7 325.087 313.847 341.466C297.041 352.827 277.206 359 256.5 359C199.891 359 154 313.109 154 256.5C154 199.891 199.891 154 256.5 154C277.36 154 297.334 160.265 314.215 171.783Z" fill="white"/>
</svg>
